<svg width="600" height="600" viewBox="0 0 600 600" fill="none" xmlns="http://www.w3.org/2000/svg">
<circle cx="300" cy="300" r="300" fill="#AAABE7"/>
<mask id="mask0" style="mask-type:alpha" maskUnits="userSpaceOnUse" x="0" y="0" width="600" height="600">
<circle cx="300" cy="300" r="300" fill="#11001F"/>
</mask>
<g mask="url(#mask0)">
<path d="M565.707 777.954C565.707 920.972 452.463 1039.94 403.859 1039.94C355.256 1039.94 389.698 920.972 389.698 777.954C389.698 634.937 394.706 461.341 443.31 461.341C491.913 461.341 565.707 634.937 565.707 777.954Z" fill="url(#paint0_linear)"/>
<path d="M-156 346H172.5H501C501 346 501 412.441 501 670.152C501 933.904 332.174 1099 170.466 1099C8.75816 1099 -156 933.904 -156 670.152C-156 550.357 -156 346 -156 346Z" fill="#1D1D45"/>
<path d="M33.4319 116.688C-12.0648 114.609 -84.7996 111.286 -126.683 81.7594C-130.426 79.1209 -138.425 83.8597 -137.396 88.277C-122.917 150.47 -128.006 220.752 -139.39 246.695C-153.988 279.963 -162.307 317.451 -162.307 356.479C-162.307 536.864 85.2493 679.835 169.48 679.835C253.71 679.835 501.266 536.864 501.266 356.479C501.266 316.864 493.092 279.178 478.614 245.997L478.667 246.032C467.368 221.763 461.629 151.194 476.34 88.2743C477.372 83.858 469.446 79.1853 465.735 81.8664C422.696 112.957 348.822 117.318 303.965 119.814C299.874 119.894 295.753 120.128 291.604 120.522C290.947 120.562 290.395 120.667 289.758 120.708C251.055 124.816 210.043 142.818 169.48 178.509C124.474 134.729 77.4519 116.319 33.4319 116.688C33.0321 116.67 33.8357 116.706 33.4319 116.688Z" fill="#1D1D45"/>
<path fill-rule="evenodd" clip-rule="evenodd" d="M319.657 403.39C363.123 392.905 389.86 349.169 379.376 305.703C368.891 262.236 325.155 235.499 281.688 245.984C238.222 256.469 211.485 300.205 221.97 343.672C232.454 387.138 276.191 413.875 319.657 403.39ZM318.134 365.976C348.429 358.669 367.064 328.186 359.756 297.891C352.449 267.596 321.966 248.961 291.671 256.269C261.376 263.577 242.741 294.06 250.049 324.354C257.357 354.649 287.839 373.284 318.134 365.976Z" fill="#AAABE7"/>
<path d="M408 243.233C386.259 266.973 346.91 256.859 329.953 248.834L359.837 273.566C369.685 273.592 393.103 267.561 408 243.233Z" fill="#AAABE7"/>
<path fill-rule="evenodd" clip-rule="evenodd" d="M21.3427 403.39C-22.1237 392.905 -48.8606 349.169 -38.3758 305.703C-27.8909 262.236 15.8452 235.499 59.3117 245.984C102.778 256.469 129.515 300.205 119.03 343.672C108.545 387.138 64.8092 413.875 21.3427 403.39ZM37.9245 365.976C7.62973 358.669 -11.0051 328.186 -3.69746 297.891C3.61016 267.596 34.093 248.961 64.3878 256.269C94.6826 263.577 113.317 294.06 106.01 324.354C98.7021 354.649 68.2194 373.284 37.9245 365.976Z" fill="#AAABE7"/>
<path d="M-67 243.233C-45.2596 266.973 -5.91014 256.859 11.047 248.834L-18.8376 273.566C-28.6849 273.592 -52.1037 267.561 -67 243.233Z" fill="#AAABE7"/>
<path d="M218.034 419.43C218.034 453.266 194.768 477.593 172.514 497.757C149.249 478.369 126.995 453.266 126.995 419.43C126.995 385.593 147.374 358.164 172.514 358.164C197.654 358.164 218.034 385.593 218.034 419.43Z" fill="#E0A962"/>
</g>
<defs>
<linearGradient id="paint0_linear" x1="471.782" y1="461.341" x2="471.782" y2="1039.94" gradientUnits="userSpaceOnUse">
<stop stop-color="#2A0D43"/>
<stop offset="1" stop-color="#813E75"/>
</linearGradient>
</defs>
</svg>
